# xmcd CD database file
#
# Track frame offsets:
#	150
#	16844
#	38333
#	57179
#	70894
#	96148
#	112825
#	135447
#	151964
#	169692
#	189497
#	213922
#	233827
#	256534
#	290999
#
# Disc length: 4255 seconds
#
# Revision: 0
# Processed by: cddbd v1.5.2PL0 Copyright (c) Steve Scherf et al.
# Submitted via: CDex 1.51
#
DISCID=bc109d0f
DTITLE=Various Artist - Mijke's middag: Radio 6 on stage
DYEAR=2011
DGENRE=jazz
TTITLE0=Never stop ~ Bad Plus
TTITLE1=Superfly ~ Brown Hill and Ob6sions
TTITLE2=Aspartame (alis q 170 ~ Michiel Braam and Ob6sions
TTITLE3=Não preciso ~ Sensual
TTITLE4=Guess what ~ Ob6sions
TTITLE5=Gotta be my girl ~ Shirma Rouse and Ob6sions
TTITLE6=Peg ~ Tom Braxton and Ob6sions
TTITLE7=For good ~ Paul van Kessel and Ob6sions
TTITLE8=Shortcuts ~ Anton Goudsmit, Sven Schuster and Victor de Boo
TTITLE9=Back on the right track ~ Lilian Hak and Ob6sions
TTITLE10=She walks this earth ~ Ivan Lins ft. Bernice van Leer
TTITLE11=Check sound ~ Tuniko Goulart and Ob6sions
TTITLE12=Don't say a word ~ Stefan Schill
TTITLE13=African dream ~ Ob6sions
TTITLE14=Papa was a rolling stone ~ Loet van der Lee and Ob6sions
EXTD=YEAR: 2011
EXTT0=
EXTT1=
EXTT2=
EXTT3=
EXTT4=
EXTT5=
EXTT6=
EXTT7=
EXTT8=
EXTT9=
EXTT10=
EXTT11=
EXTT12=
EXTT13=
EXTT14=
PLAYORDER=
